<svg width="24" height="24" viewBox="0 0 24 24" xmlns="http://www.w3.org/2000/svg">
    <path d="M12 3.138c-4.886 0-8.862 3.976-8.862 8.862S7.114 20.862 12 20.862s8.862-3.976 8.862-8.862S16.886 3.138 12 3.138zm0 1.33A7.522 7.522 0 0 1 19.532 12 7.522 7.522 0 0 1 12 19.532 7.522 7.522 0 0 1 4.468 12 7.522 7.522 0 0 1 12 4.468zm3.31 4.867a.665.665 0 0 0-.457.201l-3.96 3.961-1.746-1.745a.665.665 0 1 0-.94.94l2.215 2.215c.26.26.68.26.94 0l4.431-4.43a.665.665 0 0 0-.483-1.142z" fill="#3FC063" fill-rule="nonzero"/>
</svg>
