<svg width="24" height="24" viewBox="0 0 24 24" xmlns="http://www.w3.org/2000/svg">
    <path d="M12 3.138c-4.886 0-8.862 3.976-8.862 8.862S7.114 20.862 12 20.862s8.862-3.976 8.862-8.862S16.886 3.138 12 3.138zm0 1.33A7.522 7.522 0 0 1 19.532 12 7.522 7.522 0 0 1 12 19.532 7.522 7.522 0 0 1 4.468 12 7.522 7.522 0 0 1 12 4.468zm2.874 3.978a.665.665 0 0 0-.464.204L12 11.06 9.59 8.65a.665.665 0 1 0-.94.94L11.06 12l-2.41 2.41a.665.665 0 1 0 .94.94L12 12.94l2.41 2.41a.665.665 0 1 0 .94-.94L12.94 12l2.41-2.41a.665.665 0 0 0-.476-1.144z" fill="#EA4E2C" fill-rule="nonzero"/>
</svg>
